# AST/ASF file generated using VICON BodyLanguage
# -----------------------------------------------
:version 1.10
:name VICON
:units
  mass 1.0
  length 0.45
  angle deg
:documentation
   .ast/.asf automatically generated from VICON data using
   VICON BodyBuilder and BodyLanguage model FoxedUp or BRILLIANT.MOD
:root
   order TX TY TZ RX RY RZ
   axis XYZ
   position 0 0 0  
   orientation 0 0 0 
:bonedata
  begin
     id 1 
     name lhipjoint
     direction 0.561001 -0.76473 0.316963 
     length 2.4722 
     axis 0 0 0  XYZ
  end
  begin
     id 2 
     name lfemur
     direction 0.34202 -0.939693 0  
     length 7.59403  
     axis 0 0 20  XYZ
    dof rx ry rz
    limits (-160.0 20.0)
           (-70.0 70.0)
           (-60.0 70.0)
  end
  begin
     id 3 
     name ltibia
     direction 0.34202 -0.939693 0   
     length 7.89655   
     axis 0 0 20   XYZ
    dof rx
    limits (-10.0 170.0)
  end
  begin
     id 4 
     name lfoot
     direction 0.061296 -0.168409 0.98381   
     length 2.73287   
     axis -90 7.62852e-016 20   XYZ
    dof rx rz
    limits (-45.0 90.0)
           (-70.0 20.0)
  end
  begin
     id 5 
     name ltoes
     direction 1.53547e-011 -4.21984e-011 1   
     length 1.37057   
     axis -90 7.62852e-016 20   XYZ
    dof rx
    limits (-90.0 20.0)
  end
  begin
     id 6 
     name rhipjoint
     direction -0.559611 -0.765599 0.317323   
     length 2.46939  
     axis 0 0 0  XYZ 
  end
  begin
     id 7 
     name rfemur
     direction -0.34202 -0.939693 0   
     length 7.53712   
     axis 0 0 -20   XYZ
    dof rx ry rz
    limits (-160.0 20.0)
           (-70.0 70.0)
           (-70.0 60.0)
  end
  begin
     id 8 
     name rtibia
     direction -0.34202 -0.939693 0   
     length 8.12549   
     axis 0 0 -20   XYZ
    dof rx
    limits (-10.0 170.0)
 end
 begin
     id 9 
     name rfoot
     direction -0.066984 -0.184037 0.980634   
     length 2.67541  
     axis -90 -7.62852e-016 -20   XYZ
    dof rx rz
    limits (-45.0 90.0)
           (-20.0 70.0)
  end
  begin
     id 10 
     name rtoes
     direction -1.53549e-011 -4.21786e-011 1   
     length 1.34085   
     axis -90 -7.62852e-016 -20   XYZ
    dof rx
    limits (-90.0 20.0)
  end
  begin
     id 11 
     name lowerback
     direction -0.0522728 0.992594 -0.109658   
     length 2.05633   
     axis 0 0 0   XYZ
    dof rx ry rz
    limits (-20.0 45.0)
           (-30.0 30.0)
           (-30.0 30.0)
  end
  begin
     id 12 
     name upperback
     direction 0.00589338 0.999977 0.00335704   
     length 2.05845   
     axis 0 0 0   XYZ
    dof rx ry rz
    limits (-20.0 45.0)
           (-30.0 30.0)
           (-30.0 30.0)
  end
  begin
     id 13 
     name thorax
     direction 0.0292928 0.998059 0.0549487   
     length 2.09281   
     axis 0 0 0   XYZ
    dof rx ry rz
    limits (-20.0 45.0)
           (-30.0 30.0)
           (-30.0 30.0)
  end
  begin
     id 14 
     name lowerneck
     direction 0.0356368 0.980775 0.191858   
     length 1.84767   
     axis 0 0 0   XYZ
    dof rx ry rz
    limits (-20.0 45.0)
           (-30.0 30.0)
           (-30.0 30.0)
  end
  begin
     id 15 
     name upperneck
     direction -0.0227605 0.98931 -0.14404   
     length 1.89582   
     axis 0 0 0   XYZ
    dof rx ry rz
    limits (-20.0 45.0)
           (-30.0 30.0)
           (-30.0 30.0)
  end
  begin
     id 16
     name head
     direction -0.00932985 0.997511 -0.0698904  
     length 1.90213  
     axis 0 0 0   XYZ
    dof rx ry rz
    limits (-20.0 45.0)
           (-30.0 30.0)
           (-30.0 30.0)
  end
  begin
     id 17 
     name lclavicle
     direction 0.873442 0.479511 0.0846686  
     length 3.41193  
     axis 0 0 0   XYZ
    dof ry rz
    limits (-20.0 10.0)
           (0.0 20.0)
  end
  begin
     id 18 
     name lhumerus
     direction 1 -4.4897e-011 -5.62117e-018   
     length 5.59864   
     axis 180 -30 -90   XYZ
    dof rx ry rz
    limits (-60.0 90.0)
           (-90.0 90.0)
           (-90.0 90.0)
  end
  begin
     id 19
     name lradius
     direction 1 -4.48966e-011 -6.26295e-027   
     length 3.59542   
     axis 180 -30 -90   XYZ
    dof rx
    limits (-10.0 170.0)
  end
  begin
     id 20
     name lwrist
     direction 1 -4.48947e-011 -1.74096e-026   
     length 1.79771   
     axis 1.04567e-014 90 90   XYZ
    dof ry
    limits (-180.0 0.0)
 end
  begin
     id 21 
     name lhand
     direction 1 -4.49085e-011 -3.48469e-026   
     length 0.572014   
     axis 2.22196e-014 90 90   XYZ
    dof rx rz
    limits (-90.0 90.0)
           (-45.0 45.0)
  end
  begin
     id 22 
     name lfingers
     direction 1 -4.48884e-011 -6.96135e-026   
     length 0.461173   
     axis 4.44383e-014 90 90   XYZ
    dof rx
    limits (0.0 90.0)
  end
  begin
     id 23
     name lthumb
     direction 0.707107 -6.34976e-011 0.707107   
     length 0.662154   
     axis -90 45 -5.4397e-014   XYZ
    dof rx rz
    limits (-45.0 45.0)
           (-45.0 45.0)
  end
  begin
     id 24 
     name rclavicle
     direction -0.890242 0.443271 0.104786   
     length 3.46753  
     axis 0 0 0   XYZ 
    dof ry rz
    limits (-10.0 20.0)
           (-20.0 0.0)
  end
  begin
     id 25 
     name rhumerus
     direction -1 -4.48963e-011 -5.41723e-018  
     length 5.8094   
     axis 180 30 90   XYZ
    dof rx ry rz
    limits (-90.0 60.0)
           (-90.0 90.0)
           (-90.0 90.0)
  end
  begin
     id 26 
     name rradius
     direction -1 -4.48958e-011 -6.51059e-027   
     length 3.66953   
     axis 180 30 90   XYZ
    dof rx
    limits (-10.0 170.0)
  end
  begin
     id 27 
     name rwrist
     direction -1 -4.48975e-011 -1.74124e-026   
     length 1.83476   
     axis 1.04567e-014 -90 -90   XYZ
    dof ry
    limits (-180.0 0.0)
  end
  begin
     id 28
     name rhand
     direction -1 -4.49013e-011 -3.48326e-026   
     length 0.57843   
     axis 2.22196e-014 -90 -90   XYZ
    dof rx rz
    limits (-90.0 90.0)
           (-45.0 45.0)
  end
  begin
     id 29
     name rfingers
     direction -1 -4.49023e-011 -6.9669e-026   
     length 0.466345   
     axis 4.44383e-014 -90 -90   XYZ
    dof rx
    limits (0.0 90.0)
  end
  begin
     id 30
     name rthumb
     direction -0.707107 -6.34926e-011 0.707107   
     length 0.669581   
     axis -90 -45 5.4397e-014   XYZ
    dof rx rz
    limits (-45.0 45.0)
           (-45.0 45.0)
  end
:hierarchy
  begin
    root lhipjoint rhipjoint lowerback
    lhipjoint lfemur
    lfemur ltibia
    ltibia lfoot
    lfoot ltoes
    rhipjoint rfemur
    rfemur rtibia
    rtibia rfoot
    rfoot rtoes
    lowerback upperback
    upperback thorax
    thorax lowerneck lclavicle rclavicle
    lowerneck upperneck
    upperneck head
    lclavicle lhumerus
    lhumerus lradius
    lradius lwrist
    lwrist lhand lthumb
    lhand lfingers
    rclavicle rhumerus
    rhumerus rradius
    rradius rwrist
    rwrist rhand rthumb
    rhand rfingers
  end

#!OML:ASF H:\SkateBoarding\Project 1\Capture day 1\Session 1\Skater.ASF
:FULLY-SPECIFIED
:DEGREES
34
root 22.0467 18.2355 -11.9915 7.88112 31.6894 1.01594
lowerback 16.659 1.5561 -6.39788
upperback 1.04079 0.774088 -1.30791
thorax -8.31048 0.597679 2.0338
lowerneck -20.055 -5.86779 -1.50097
upperneck 30.7822 -9.29869 4.17264
head 14.1797 -3.52029 0.275837
rclavicle 5.9039e-014 1.82882e-014
rhumerus -25.5129 9.0981 -77.3174
rradius 47.9279
rwrist -4.84366
rhand -44.3082 11.3972
rfingers 7.12502
rthumb -17.1178 -17.8687
lclavicle 5.9039e-014 1.82882e-014
lhumerus -36.1671 -1.33586 73.4284
lradius 45.6427
lwrist 31.4937
lhand -23.4228 14.5352
lfingers 7.12502
lthumb 3.03478 44.4934
rfemur -42.5929 4.65261 14.483
rtibia 62.0443
rfoot -24.4223 12.057
rtoes -21.7147
lfemur -21.0268 -21.5182 -4.22915
ltibia 30.4547
lfoot -14.0956 -5.57837
ltoes 3.4444
35
root 22.0662 18.093 -11.71 8.16093 30.9833 1.32003
lowerback 16.6707 1.56244 -6.44044
upperback 1.08633 0.765455 -1.43278
thorax -8.26546 0.590772 1.92548
lowerneck -20.2144 -5.7565 -1.334
upperneck 30.7967 -9.12444 3.95204
head 14.1895 -3.45504 0.18728
rclavicle 4.4329e-014 -1.43125e-014
rhumerus -25.524 9.50562 -77.4666
rradius 48.7218
rwrist -5.38593
rhand -44.271 11.828
rfingers 7.12502
rthumb -17.0821 -17.441
lclavicle 4.4329e-014 -1.43125e-014
lhumerus -35.0206 -1.54156 73.3646
lradius 45.5451
lwrist 31.4883
lhand -23.3258 14.4144
lfingers 7.12502
lthumb 3.12847 44.3712
rfemur -44.2503 4.43534 13.7956
rtibia 63.9513
rfoot -24.026 13.093
rtoes -21.4812
lfemur -20.3297 -21.1995 -4.45566
ltibia 30.0624
lfoot -14.6184 -6.73825
ltoes 4.27686
36
root 22.0872 17.9477 -11.4321 8.41473 30.2513 1.60818
lowerback 16.6846 1.56759 -6.43171
upperback 1.12241 0.764124 -1.55743
thorax -8.23189 0.585934 1.78664
lowerneck -20.357 -5.63874 -1.15608
upperneck 30.7969 -8.93061 3.69291
head 14.1862 -3.38675 0.0857523
rclavicle -1.94809e-014 -1.59028e-014
rhumerus -25.5919 9.96843 -77.5723
rradius 49.6048
rwrist -5.86648
rhand -44.222 12.2496
rfingers 7.12502
rthumb -17.0349 -17.0235
lclavicle -1.94809e-014 -1.59028e-014
lhumerus -33.7805 -1.78583 73.3167
lradius 45.5099
lwrist 31.5024
lhand -23.2781 14.2695
lfingers 7.12502
lthumb 3.17452 44.2256
rfemur -45.9156 4.19091 13.0972
rtibia 65.7674
rfoot -23.4708 14.1168
rtoes -21.1353
lfemur -19.6283 -20.8125 -4.72699
ltibia 30.2732
lfoot -15.4053 -8.24624
ltoes 5.07538
37
root 22.1049 17.8308 -11.1554 8.62565 29.4967 1.8773
lowerback 16.729 1.57104 -6.39523
upperback 1.15065 0.763623 -1.67064
thorax -8.22369 0.581459 1.64376
lowerneck -20.4761 -5.51122 -0.980811
upperneck 30.769 -8.70873 3.40126
head 14.1638 -3.31319 -0.0222424
rclavicle 7.03698e-014 1.59028e-014
rhumerus -25.697 10.5077 -77.631
rradius 50.5588
rwrist -6.27505
rhand -44.171 12.6979
rfingers 7.12502
rthumb -16.9858 -16.5794
lclavicle 7.03698e-014 1.59028e-014
lhumerus -32.4546 -2.05808 73.2839
lradius 45.5472
lwrist 31.5489
lhand -23.3127 14.0972
lfingers 7.12502
lthumb 3.14113 44.0538
rfemur -47.4416 3.96883 12.4202
rtibia 67.3952
rfoot -22.8092 15.1192
rtoes -20.6462
lfemur -18.9057 -20.3859 -5.02528
ltibia 30.9986
lfoot -16.3269 -10.0737
ltoes 5.9683
38
root 22.1227 17.6803 -10.8827 8.79308 28.7223 2.1226
lowerback 16.8088 1.57951 -6.34623
upperback 1.17335 0.769938 -1.76906
thorax -8.24181 0.580778 1.50747
lowerneck -20.5719 -5.37922 -0.809549
upperneck 30.7015 -8.47011 3.09001
head 14.1188 -3.23777 -0.133242
rclavicle -5.36719e-015 -4.21423e-014
rhumerus -25.8275 11.0992 -77.6397
rradius 51.5624
rwrist -6.56991
rhand -44.1604 13.1789
rfingers 7.12502
rthumb -16.9756 -16.0993
lclavicle -5.36719e-015 -4.21423e-014
lhumerus -31.0267 -2.36201 73.2665
lradius 45.6502
lwrist 31.6145
lhand -23.4605 13.9012
lfingers 7.12502
lthumb 2.99842 43.8599
rfemur -49.116 3.74797 11.7322
rtibia 69.0981
rfoot -22.0105 16.0992
rtoes -19.9774
lfemur -18.2539 -19.9075 -5.28344
ltibia 32.174
lfoot -17.1888 -12.1421
ltoes 7.05234
39
root 22.1362 17.5269 -10.6108 8.93491 27.9304 2.34972
lowerback 16.9099 1.59936 -6.31662
upperback 1.1912 0.787025 -1.84844
thorax -8.27834 0.586773 1.39954
lowerneck -20.6485 -5.24773 -0.653232
upperneck 30.5909 -8.22417 2.77639
head 14.053 -3.16318 -0.240278
rclavicle 3.33958e-014 -2.38542e-015
rhumerus -25.9609 11.7424 -77.5876
rradius 52.5822
rwrist -6.72414
rhand -44.2187 13.7079
rfingers 7.12502
rthumb -17.0317 -15.5655
lclavicle 3.33958e-014 -2.38542e-015
lhumerus -29.4918 -2.69959 73.2614
lradius 45.8187
lwrist 31.6785
lhand -23.7254 13.6817
lfingers 7.12502
lthumb 2.74254 43.6438
rfemur -50.8159 3.56983 11.0564
rtibia 70.7396
rfoot -21.145 16.9927
rtoes -19.2287
lfemur -17.6251 -19.362 -5.49655
ltibia 33.5697
lfoot -17.8196 -14.2847
ltoes 8.25521
